HIERARCHY
ROOT hip
{
  OFFSET 0 0 0
  CHANNELS 6 Xposition Yposition Zposition Zrotation Yrotation Xrotation
  JOINT abdomen
  {
    OFFSET 0 20.6881 -0.73152
    CHANNELS 3 Zrotation Xrotation Yrotation
    JOINT chest
    {
      OFFSET 0 11.7043 -0.48768
      CHANNELS 3 Zrotation Xrotation Yrotation
      JOINT neck
      {
        OFFSET 0 22.1894 -2.19456
        CHANNELS 3 Zrotation Xrotation Yrotation
        JOINT head
        {
          OFFSET -0.24384 7.07133 1.2192
          CHANNELS 3 Zrotation Xrotation Yrotation
          JOINT leftEye
          {
            OFFSET 4.14528 8.04674 8.04672
            CHANNELS 3 Zrotation Xrotation Yrotation
            End Site
            {
              OFFSET 1 0 0
            }
          }
          JOINT rightEye
          {
            OFFSET -3.6576 8.04674 8.04672
            CHANNELS 3 Zrotation Xrotation Yrotation
            End Site
            {
              OFFSET 1 0 0
            }
          }
        }
      }
      JOINT rCollar
      {
        OFFSET -2.68224 19.2634 -4.8768
        CHANNELS 3 Zrotation Xrotation Yrotation
        JOINT rShldr
        {
          OFFSET -8.77824 -1.95073 1.46304
          CHANNELS 3 Zrotation Xrotation Yrotation
          JOINT rForeArm
          {
            OFFSET -28.1742 -1.7115 0.48768
            CHANNELS 3 Zrotation Xrotation Yrotation
            JOINT rHand
            {
              OFFSET -22.5879 0.773209 7.07136
              CHANNELS 3 Zrotation Xrotation Yrotation
              JOINT rThumb1
              {
                OFFSET -1.2192 -0.487915 3.41376
                CHANNELS 3 Zrotation Xrotation Yrotation
                JOINT rThumb2
                {
                  OFFSET -3.37035 -0.52449 3.41376
                  CHANNELS 3 Zrotation Xrotation Yrotation
                  End Site
                  {
                    OFFSET -1.78271 -1.18214 1.43049
                  }
                }
              }
              JOINT rIndex1
              {
                OFFSET -7.75947 0.938293 5.60832
                CHANNELS 3 Zrotation Xrotation Yrotation
                JOINT rIndex2
                {
                  OFFSET -2.54057 -0.884171 1.56538
                  CHANNELS 3 Zrotation Xrotation Yrotation
                  End Site
                  {
                    OFFSET -1.62519 -0.234802 1.16502
                  }
                }
              }
              JOINT rMid1
              {
                OFFSET -8.24714 1.18213 3.41376
                CHANNELS 3 Zrotation Xrotation Yrotation
                JOINT rMid2
                {
                  OFFSET -3.10165 -0.590103 1.0647
                  CHANNELS 3 Zrotation Xrotation Yrotation
                  End Site
                  {
                    OFFSET -2.48547 -0.328903 0.83742
                  }
                }
              }
              JOINT rRing1
              {
                OFFSET -8.82822 0.546677 1.51678
                CHANNELS 3 Zrotation Xrotation Yrotation
                JOINT rRing2
                {
                  OFFSET -2.60934 -0.819778 -0.0198488
                  CHANNELS 3 Zrotation Xrotation Yrotation
                  End Site
                  {
                    OFFSET -2.33842 -0.294052 0.168128
                  }
                }
              }
              JOINT rPinky1
              {
                OFFSET -8.27202 -0.0477905 -0.4584
                CHANNELS 3 Zrotation Xrotation Yrotation
                JOINT rPinky2
                {
                  OFFSET -1.82734 -0.647385 -0.700984
                  CHANNELS 3 Zrotation Xrotation Yrotation
                  End Site
                  {
                    OFFSET -1.69225 -0.51767 -0.607171
                  }
                }
              }
            }
          }
        }
      }
      JOINT lCollar
      {
        OFFSET 2.68224 19.2634 -4.8768
        CHANNELS 3 Zrotation Xrotation Yrotation
        JOINT lShldr
        {
          OFFSET 8.77824 -1.95073 1.46304
          CHANNELS 3 Zrotation Xrotation Yrotation
          JOINT lForeArm
          {
            OFFSET 28.1742 -1.7115 0.48768
            CHANNELS 3 Zrotation Xrotation Yrotation
            JOINT lHand
            {
              OFFSET 22.5879 0.773209 7.07136
              CHANNELS 3 Zrotation Xrotation Yrotation
              JOINT lThumb1
              {
                OFFSET 1.2192 -0.487915 3.41376
                CHANNELS 3 Zrotation Xrotation Yrotation
                JOINT lThumb2
                {
                  OFFSET 3.37035 -0.52449 3.41376
                  CHANNELS 3 Zrotation Xrotation Yrotation
                  End Site
                  {
                    OFFSET 1.78271 -1.18214 1.43049
                  }
                }
              }
              JOINT lIndex1
              {
                OFFSET 7.75947 0.938293 5.60832
                CHANNELS 3 Zrotation Xrotation Yrotation
                JOINT lIndex2
                {
                  OFFSET 2.54057 -0.884171 1.56538
                  CHANNELS 3 Zrotation Xrotation Yrotation
                  End Site
                  {
                    OFFSET 1.62519 -0.234802 1.16502
                  }
                }
              }
              JOINT lMid1
              {
                OFFSET 8.24714 1.18213 3.41376
                CHANNELS 3 Zrotation Xrotation Yrotation
                JOINT lMid2
                {
                  OFFSET 3.10165 -0.590103 1.0647
                  CHANNELS 3 Zrotation Xrotation Yrotation
                  End Site
                  {
                    OFFSET 2.48547 -0.328903 0.83742
                  }
                }
              }
              JOINT lRing1
              {
                OFFSET 8.82822 0.546677 1.51678
                CHANNELS 3 Zrotation Xrotation Yrotation
                JOINT lRing2
                {
                  OFFSET 2.60934 -0.819778 -0.0198488
                  CHANNELS 3 Zrotation Xrotation Yrotation
                  End Site
                  {
                    OFFSET 2.33842 -0.294052 0.168128
                  }
                }
              }
              JOINT lPinky1
              {
                OFFSET 8.27202 -0.0477905 -0.4584
                CHANNELS 3 Zrotation Xrotation Yrotation
                JOINT lPinky2
                {
                  OFFSET 1.82734 -0.647385 -0.700984
                  CHANNELS 3 Zrotation Xrotation Yrotation
                  End Site
                  {
                    OFFSET 1.69225 -0.51767 -0.607171
                  }
                }
              }
            }
          }
        }
      }
    }
  }
  JOINT rButtock
  {
    OFFSET -8.77824 4.35084 1.2192
    CHANNELS 3 Zrotation Xrotation Yrotation
    JOINT rThigh
    {
      OFFSET 0 -1.70687 -2.19456
      CHANNELS 3 Zrotation Xrotation Yrotation
      JOINT rShin
      {
        OFFSET 0 -36.8199 0.73152
        CHANNELS 3 Zrotation Xrotation Yrotation
        JOINT rFoot
        {
          OFFSET 0.73152 -45.1104 -5.12064
          CHANNELS 3 Zrotation Xrotation Yrotation
          End Site
          {
            OFFSET -1.1221 -3.69964 12.103
          }
        }
      }
    }
  }
  JOINT lButtock
  {
    OFFSET 8.77824 4.35084 1.2192
    CHANNELS 3 Zrotation Xrotation Yrotation
    JOINT lThigh
    {
      OFFSET 0 -1.70687 -2.19456
      CHANNELS 3 Zrotation Xrotation Yrotation
      JOINT lShin
      {
        OFFSET 0 -36.8199 0.73152
        CHANNELS 3 Zrotation Xrotation Yrotation
        JOINT lFoot
        {
          OFFSET -0.73152 -45.1104 -5.12064
          CHANNELS 3 Zrotation Xrotation Yrotation
          End Site
          {
            OFFSET 1.1221 -3.69964 12.103
          }
        }
      }
    }
  }
}
MOTION
Frames:	4
Frame Time:	0.03333
0.016333650348145025 35.441339339008415 0.16124611874988254 -2.956495761871338 6.394387722015381 4.775610446929932 -2.3720340728759766 14.321625709533691 3.9949095249176025 2.5747060775756836 -9.579513549804688 1.2922308444976807 -5.370979309082031 15.690186500549316 -3.9335527420043945 9.135075569152832 -25.970046997070312 -6.013050556182861 0.12149304896593094 0.19260746240615845 -0.0013704641023650765 -0.053316887468099594 -0.03938641399145126 -0.015172775834798813 -0.0202200785279274 -0.11287971585988998 0.07586168497800827 45.565059661865234 35.55976104736328 17.61458396911621 -29.197660446166992 -31.945045471191406 62.63313674926758 -1.723939299583435 -10.19086742401123 -1.0338698625564575 -0.09740680456161499 -0.07402729243040085 -0.11586110293865204 -0.046882063150405884 -0.11010454595088959 -0.00012092301767552271 -0.07106635719537735 -0.033671166747808456 0.01670861802995205 7.813538074493408 5.374393463134766 0.41110503673553467 0.198403000831604 -0.02023961953818798 0.05963229015469551 2.90737247467041 0.9206065535545349 0.1368514746427536 -0.2080761194229126 0.0783252865076065 -0.038727834820747375 10.487486839294434 0.7632597088813782 -0.1443992555141449 0.0780610740184784 0.07523863017559052 0.06301920861005783 2.2720229625701904 -0.8420817255973816 -0.46102094650268555 -0.07578673958778381 0.015854306519031525 -0.10415862500667572 -53.57477569580078 40.88526916503906 -27.656837463378906 27.635936737060547 -30.558452606201172 -60.70109558105469 2.033977508544922 -13.60381031036377 1.8588916063308716 0.014225800521671772 -0.03637608885765076 0.04605561122298241 0.05671296641230583 0.11786139011383057 0.06819682568311691 0.03000810369849205 -0.12084737420082092 0.15307345986366272 -7.605220794677734 5.669641971588135 -0.5340311527252197 0.0033842099364846945 0.1170293465256691 0.05404442176222801 -2.9472289085388184 0.9218519926071167 -0.12074043601751328 0.06584051251411438 -0.09082048386335373 0.0042052967473864555 -10.217666625976562 0.7291353344917297 -0.008349758572876453 0.010015367530286312 0.013011064380407333 -0.009865563362836838 -2.236684560775757 -0.5471161603927612 0.19138778746128082 0.015506994910538197 -0.12260474264621735 -0.07370579987764359 -27.81765365600586 -38.97038650512695 -24.032880783081055 -1.3499813079833984 65.5422592163086 2.5171988010406494 -4.778350353240967 -10.476520538330078 -9.58435344696045 -0.13748565316200256 0.199615940451622 -0.06030912697315216 32.78984069824219 -37.38866424560547 26.129833221435547 1.3792781829833984 66.29402923583984 -2.4973278045654297 5.323394775390625 -11.083060264587402 13.621466636657715
-0.011511750237527584 35.68434380929913 0.1933087342612149 -2.8456993103027344 5.3746209144592285 4.659732341766357 -2.431941509246826 15.070955276489258 3.775620460510254 2.7680611610412598 -9.983680725097656 1.0493884086608887 -4.69017219543457 15.570728302001953 -2.775405168533325 8.957574844360352 -26.401138305664062 -3.7332305908203125 -0.0398440957069397 -0.23769310116767883 0.05010347068309784 0.09297028183937073 0.03343311324715614 -0.0667833685874939 -0.054768528789281845 0.05076208338141441 -0.12704890966415405 47.83979034423828 37.6595344543457 16.506732940673828 -27.85946273803711 -32.37171173095703 63.71445846557617 -1.4418952465057373 -10.803271293640137 -1.9355077743530273 -0.016893215477466583 0.06800492852926254 0.12007109075784683 -0.01407912652939558 0.06163446232676506 -0.005659501999616623 0.04674122855067253 -0.005295745562762022 0.06437734514474869 7.7154717445373535 5.573750972747803 0.5029160976409912 -0.23157665133476257 -0.015141874551773071 -0.1396244615316391 2.9729433059692383 1.0483731031417847 0.10726160556077957 0.13514624536037445 -0.10612966120243073 0.1258392632007599 10.136578559875488 0.6675786375999451 0.19749955832958221 -0.03906773775815964 -0.07714705914258957 -0.09647207707166672 2.1054282188415527 -0.573129415512085 -0.04759244993329048 0.14518257975578308 0.05987774208188057 0.11207133531570435 -51.443267822265625 37.65718460083008 -31.068626403808594 27.970623016357422 -30.756725311279297 -58.495697021484375 1.8289839029312134 -14.109383583068848 2.002014398574829 0.01891241781413555 0.12112206220626831 0.0512971393764019 0.00507282093167305 -0.2586061954498291 -0.10835468024015427 -0.03975901007652283 0.12825272977352142 -0.1690298616886139 -7.827836036682129 5.267046928405762 -0.42293229699134827 -0.0026218185666948557 -0.13058243691921234 -0.02204674296081066 -2.8276896476745605 0.9621075391769409 -0.01424411404877901 -0.06885965913534164 0.041183728724718094 -0.022246282547712326 -10.394186019897461 0.720827043056488 -0.0385005883872509 -0.06895089149475098 0.007754884660243988 -0.057477954775094986 -2.225510597229004 -0.9382750988006592 0.18313917517662048 0.00876136776059866 0.07908811420202255 0.1726330667734146 -27.812719345092773 -38.844669342041016 -23.007831573486328 -1.791579246520996 64.96311950683594 2.8327417373657227 -4.469595909118652 -11.011281967163086 -10.430027961730957 0.13139522075653076 -0.2580587863922119 0.17505168914794922 34.149654388427734 -38.540775299072266 27.058025360107422 2.009472608566284 65.6479721069336 -3.1610629558563232 4.7876296043396 -10.23359203338623 13.945116996765137
-0.17036113959939678 36.41658789964868 0.5546176571856765 -0.6352737545967102 13.987009048461914 5.601034164428711 -3.929842233657837 14.327043533325195 4.925694465637207 2.094273567199707 -9.712267875671387 1.372877597808838 -6.289921283721924 16.350236892700195 -6.834543704986572 10.033010482788086 -27.241043090820312 -10.604166030883789 0.21733731031417847 -0.29376021027565 -0.22295311093330383 -0.12778820097446442 -0.13460662961006165 -0.004915238823741674 -0.19261959195137024 -0.04537304863333702 0.1342497169971466 30.372243881225586 30.190080642700195 38.64937973022461 -27.851320266723633 -30.757686614990234 59.44373321533203 -0.8414430022239685 -0.8843076229095459 0.5779845714569092 -0.4781682789325714 -0.1108979657292366 -0.08150996267795563 0.0543050542473793 -0.1311713010072708 -0.04162897169589996 -0.2870268225669861 -0.18989746272563934 0.16690285503864288 8.106164932250977 5.621394157409668 0.41826608777046204 0.0764554888010025 0.00912496354430914 -0.13252298533916473 2.5882742404937744 1.1370961666107178 -0.105896957218647 -0.0714249387383461 -0.03549014404416084 0.20093783736228943 10.690211296081543 0.8777442574501038 0.19077108800411224 -0.0184559877961874 -0.2257368564605713 -0.08065285533666611 2.34214448928833 -0.7114444375038147 -0.6132928729057312 0.09448989480733871 -0.03607579320669174 0.05483991652727127 -62.11526870727539 51.867774963378906 -17.81671142578125 28.41708755493164 -35.313053131103516 -70.24285125732422 2.0646815299987793 -25.235633850097656 4.13240909576416 0.26203250885009766 -0.09979022294282913 0.012847624719142914 0.05425933003425598 -0.12309233844280243 -0.18697968125343323 0.5783714056015015 0.33064553141593933 0.0798758864402771 -7.65278959274292 5.61275053024292 -0.4048452079296112 -0.0489840991795063 0.09718568623065948 0.13081306219100952 -2.910490036010742 1.0437110662460327 0.14893954992294312 0.16243764758110046 -0.1215260922908783 -0.10116326808929443 -10.157732963562012 0.9705072641372681 0.17412519454956055 -0.30219143629074097 -0.0076605770736932755 -0.26131489872932434 -2.269540786743164 -0.46635711193084717 0.062363557517528534 0.06388938426971436 0.1320800483226776 0.20328868925571442 -26.058992385864258 -43.38385009765625 -23.235010147094727 -1.4858874082565308 65.89256286621094 2.3052496910095215 -4.276794910430908 -9.661633491516113 -9.007936477661133 -0.05599251389503479 -0.10694599151611328 0.5119398236274719 23.06536102294922 -37.13351821899414 17.93212890625 1.6905635595321655 65.11994934082031 -2.6542789936065674 5.800090312957764 -11.664847373962402 16.13077735900879
-0.553992374711503 39.0443870695952 1.1290676224001313 0.13564229011535645 11.942713737487793 8.471055030822754 -3.9256534576416016 13.03166389465332 8.414244651794434 0.46860697865486145 -9.91163158416748 1.828230619430542 -6.058457374572754 16.61528968811035 -8.986125946044922 10.510388374328613 -28.258220672607422 -12.265419960021973 1.0726571083068848 -0.40374407172203064 -0.47104012966156006 -0.4479261338710785 -0.15613536536693573 -0.035903118550777435 -0.12752334773540497 -0.08829139173030853 0.44381776452064514 6.558271408081055 32.78871154785156 63.06076431274414 -28.204946517944336 -32.8140754699707 65.19514465332031 -0.6815884113311768 1.1625195741653442 0.5375853776931763 -0.4074288010597229 -0.08151882141828537 -0.6460153460502625 0.06931249797344208 -0.37378397583961487 0.13055108487606049 0.16292285919189453 -0.40066736936569214 0.5894039869308472 8.236993789672852 5.848618984222412 -0.10086089372634888 0.5604804158210754 -0.06916173547506332 0.658695638179779 2.8635199069976807 1.1504180431365967 0.09723470360040665 -0.057485181838274 0.3668821156024933 0.0691840797662735 10.82380485534668 0.9442231059074402 0.020425762981176376 -0.013660521246492863 -0.09538330137729645 0.18342740833759308 2.229339838027954 -1.155199646949768 -1.0015666484832764 0.06902200728654861 -0.5673063397407532 -0.23008085787296295 -71.1964340209961 58.078529357910156 -8.181368827819824 28.935945510864258 -37.30216598510742 -78.71141052246094 2.1173975467681885 -27.289899826049805 4.733763694763184 0.20262348651885986 0.3143051564693451 0.3255607485771179 0.3869306445121765 -0.08787783235311508 -0.30315500497817993 0.692901611328125 0.7137174606323242 -0.6000053286552429 -7.5065693855285645 6.066882133483887 0.1808733344078064 -0.844114363193512 0.21374019980430603 0.2414746880531311 -2.7961907386779785 0.9697688817977905 0.3340366780757904 0.26360324025154114 0.04808739200234413 0.2996990382671356 -10.095850944519043 0.8108290433883667 -0.17116306722164154 -1.094095230102539 0.18790064752101898 -0.3785250186920166 -2.5910024642944336 -0.6526017785072327 0.01845751889050007 0.31502363085746765 0.09228868782520294 0.03390522673726082 -9.371968269348145 -40.29036331176758 -11.100205421447754 -1.1829042434692383 64.0909194946289 1.5138990879058838 -6.521606922149658 -12.147631645202637 -15.416166305541992 -0.40053290128707886 -0.24470175802707672 0.3008590340614319 10.011876106262207 -44.740360260009766 5.70465087890625 1.7945921421051025 67.79421997070312 -2.3954427242279053 4.306234359741211 -9.725900650024414 13.177393913269043
